<svg width="100" height="100" viewBox="0 0 100 100">
<g fill="none" fill-rule="evenodd" stroke="#000" stroke-linecap="round" stroke-linejoin="round" stroke-width="2">
<path d="M50 20c-10 0-18 8-18 18 0 5 2 9 5 12-3 3-5 7-5 12 0 10 8 18 18 18s18-8 18-18c0-5-2-9-5-12 3-3 5-7 5-12 0-10-8-18-18-18z" fill="#FFD700"/>
<path d="M35 35c0-5 4-9 9-9s9 4 9 9c0 2-1 4-2 5-2 1-4 1-6 0-1-1-2-3-2-5z" fill="#000"/>
<path d="M45 45c0-2 2-4 4-4s4 2 4 4c0 1-1 2-2 2s-2-1-2-2z" fill="#FFF"/>
<path d="M50 50c-5 0-9 4-9 9 0 2 1 4 2 5 2 1 4 1 6 0 1-1 2-3 2-5 0-5-4-9-9-9z" fill="#FFD700"/>
<path d="M40 60c0-3 2-5 5-5s5 2 5 5c0 1-1 2-2 2s-2-1-2-2z" fill="#000"/>
<path d="M60 60c0-3 2-5 5-5s5 2 5 5c0 1-1 2-2 2s-2-1-2-2z" fill="#000"/>
<path d="M30 40c-5 0-9 4-9 9 0 2 1 4 2 5 2 1 4 1 6 0 1-1 2-3 2-5 0-5-4-9-9-9z" fill="#FFD700"/>
<path d="M20 50c0-3 2-5 5-5s5 2 5 5c0 1-1 2-2 2s-2-1-2-2z" fill="#000"/>
<path d="M70 40c5 0 9 4 9 9 0 2-1 4-2 5-2 1-4 1-6 0-1-1-2-3-2-5 0-5 4-9 9-9z" fill="#FFD700"/>
<path d="M80 50c0-3 2-5 5-5s5 2 5 5c0 1-1 2-2 2s-2-1-2-2z" fill="#000"/>
</g>
</svg>